<?xml version="1.0" encoding="UTF-8"?>
<svg version="1.1" viewBox="0 0 264 280" xmlns="http://www.w3.org/2000/svg" xmlns:xlink="http://www.w3.org/1999/xlink">
<desc>Created with getavataaars.com</desc>
<defs>
<circle id="i" cx="120" cy="120" r="120"/>
<path id="g" d="m12 160c0 66.274 53.726 120 120 120s120-53.726 120-120h12v-160h-264v160h12z"/>
<path id="a" d="m124 144.61v18.389h4c39.765 0 72 32.235 72 72v9h-200v-9c-4.8697e-15 -39.765 32.235-72 72-72h4v-18.389c-17.237-8.1886-29.628-24.924-31.695-44.73-5.8248-0.82345-10.305-5.8291-10.305-11.881v-14c0-5.946 4.3246-10.882 10-11.834v-6.1659c0-30.928 25.072-56 56-56s56 25.072 56 56v6.1659c5.6754 0.95216 10 5.8881 10 11.834v14c0 6.0521-4.4803 11.058-10.305 11.881-2.0671 19.806-14.457 36.541-31.695 44.73z"/>
</defs>
<g fill="none" fill-rule="evenodd">
<g transform="translate(-825 -1100)">
<g transform="translate(825 1100)" fill-rule="evenodd">
<g transform="translate(12 40)" fill="#fff">
<mask id="k" fill="white">
<use xlink:href="#i"/>
</mask>
<path d="m240 120a120 120 0 0 1-120 120 120 120 0 0 1-120-120 120 120 0 0 1 120-120 120 120 0 0 1 120 120z"/>
<g mask="url(#k)">
<path d="m0 0h240v240h-240z" fill="#fff"/>
</g>
</g>
<mask id="j" fill="white">
<use xlink:href="#g"/>
</mask>
<g mask="url(#j)">
<g transform="translate(32 36)">
<mask id="e" fill="white">
<use xlink:href="#a"/>
</mask>
<use fill="#D0C6AC" xlink:href="#a"/>
<g fill="#EDB98A" mask="url(#e)">
<g transform="translate(0)">
<rect width="264" height="280"/>
</g>
</g>
<path d="m156 79v23c0 30.928-25.072 56-56 56s-56-25.072-56-56v-23 15c0 30.928 25.072 56 56 56s56-25.072 56-56v-15z" fill="#000" fill-opacity=".1" mask="url(#e)"/>
</g>
<g transform="translate(0 170)">
<defs>
<path id="c" d="m105.19 29.052h-1.1924c-39.765 0-72 32.235-72 72v8.9483h200v-8.9483c0-39.765-32.235-72-72-72h-1.1924c0.12704 0.98359 0.1924 1.9847 0.1924 3 0 13.807-12.088 25-27 25s-27-11.193-27-25c0-1.0153 0.065362-2.0164 0.1924-3z"/>
</defs>
<mask id="l" fill="white">
<use xlink:href="#c"/>
</mask>
<use fill="#E6E6E6" fill-rule="evenodd" xlink:href="#c"/>
<g fill="#262E33" fill-rule="evenodd" mask="url(#l)">
<rect width="264" height="110"/>
</g>
<g transform="translate(32 28)" fill-rule="evenodd">
<path d="m68.785 1.1222c-38.272 1.6819-68.785 33.242-68.785 71.929v8.9483h69.362c-3.4009-12.08-5.3617-26.291-5.3617-41.5 0-14.327 1.74-27.769 4.7848-39.378zm62.854 80.878h68.362v-8.9483c0-38.345-29.975-69.689-67.771-71.878 3.0364 11.597 4.7713 25.02 4.7713 39.326 0 15.209-1.9607 29.42-5.3617 41.5z" fill="#3A4C5A"/>
<path d="m149 58 9.5559-7.1669c1.443-1.0823 3.4319-1.0648 4.8558 0.042591l6.5884 5.1243-21 2z" fill="#E6E6E6"/>
<path d="m69 1.1369e-13c-4 19.333-2.3333 46.667 5 82h-16l-14-36 6-9-6-6 19-30c2.0277-0.63076 4.0277-0.96409 6-1z" fill="#2F4351"/>
<path transform="translate(141 41) scale(-1 1) translate(-141 -41)" d="m151 1.1369e-13c-4 19.333-2.3333 46.667 5 82h-16l-14-36 6-9-6-6 19-30c2.0277-0.63076 4.0277-0.96409 6-1z" fill="#2F4351"/>
</g>
<path d="m156 21.539c6.7723 4.597 11 11.117 11 18.349 0 7.4009-4.428 14.057-11.48 18.669l-5.9408-4.68-4.5793 0.33139 1-3.1511-0.077771-0.061266c6.1003-3.1425 10.078-8.2952 10.078-14.119v-15.338zm-48 0c-6.7723 4.597-11 11.117-11 18.349 0 7.4009 4.428 14.057 11.48 18.669l5.9408-4.68 4.5793 0.33139-1-3.1511 0.077771-0.061266c-6.1003-3.1425-10.078-8.2952-10.078-14.119v-15.338z" fill="#F2F2F2" fill-rule="evenodd"/>
</g>
<g transform="translate(76 82)" fill="#000">
<g transform="translate(2 52)">
<defs>
<path id="b" d="m35.118 15.128c1.0579 9.4917 9.1081 16.872 18.882 16.872 9.8042 0 17.874-7.4259 18.892-16.96 0.081909-0.76731-0.77502-2.0401-1.849-2.0401h-33.956c-1.0802 0-2.0748 1.1784-1.969 2.1281z"/>
</defs>
<mask id="f" fill="white">
<use xlink:href="#b"/>
</mask>
<use fill="#000000" fill-opacity=".7" fill-rule="evenodd" xlink:href="#b"/>
<rect x="39" y="2" width="31" height="16" rx="5" fill="#fff" fill-rule="evenodd" mask="url(#f)"/>
<g fill="#FF4F6D" fill-rule="evenodd" mask="url(#f)">
<g transform="translate(38 24)">
<circle cx="11" cy="11" r="11"/>
<circle cx="21" cy="11" r="11"/>
</g>
</g>
</g>
<g transform="translate(28 40)" fill-opacity=".16">
<path d="m16 8c0 4.4183 5.3726 8 12 8s12-3.5817 12-8"/>
</g>
<g transform="translate(0 8)" fill-opacity=".6">
<path d="m16.16 22.447c1.8465-3.7988 6.0043-6.4473 10.837-6.4473 4.8161 0 8.9615 2.6298 10.818 6.4071 0.55141 1.1221-0.23325 2.0404-1.0247 1.3599-2.4511-2.1072-5.9319-3.4232-9.793-3.4232-3.7404 0-7.1238 1.235-9.56 3.2279-0.89075 0.72865-1.8174-0.013257-1.2774-1.1243z"/>
<path d="m74.16 22.447c1.8465-3.7988 6.0043-6.4473 10.837-6.4473 4.8161 0 8.9615 2.6298 10.818 6.4071 0.55141 1.1221-0.23325 2.0404-1.0247 1.3599-2.4511-2.1072-5.9319-3.4232-9.793-3.4232-3.7404 0-7.1238 1.235-9.56 3.2279-0.89075 0.72865-1.8174-0.013257-1.2774-1.1243z"/>
</g>
<g fill-opacity=".6">
<path d="m22.766 1.5784 0.91095-0.40263c5.2418-2.0811 13.187-1.2087 18.045 1.1233 0.56705 0.27237 0.17942 1.1528-0.40163 1.108-14.919-1.1511-24.963 8.1455-28.375 14.44-0.10117 0.18662-0.40693 0.2078-0.48255 0.033741-2.3073-5.3188 4.4499-13.985 10.303-16.302z"/>
<path transform="translate(85 9) scale(-1 1) translate(-85 -9)" d="m80.766 1.5784 0.91095-0.40263c5.2418-2.0811 13.187-1.2087 18.045 1.1233 0.56705 0.27237 0.17942 1.1528-0.40163 1.108-14.919-1.1511-24.963 8.1455-28.375 14.44-0.10117 0.18662-0.40693 0.2078-0.48255 0.033741-2.3073-5.3188 4.4499-13.985 10.303-16.302z"/>
</g>
</g>
<g fill-rule="evenodd">
<defs>
<rect id="h" width="264" height="280"/>
<path id="d" d="m183.68 38.949c5.4062-4.9503 6.7076-14.987 3.6379-21.499-3.7684-7.9955-11.416-8.9971-18.745-5.4807-6.9079 3.3149-13.057 4.4192-20.622 2.8131-7.2586-1.541-14.145-4.2591-21.647-4.7055-12.325-0.73332-24.3 3.8383-32.7 13.053-1.6028 1.7579-2.8942 3.7679-4.1148 5.8051-0.97673 1.63-2.0777 3.379-2.4932 5.2578-0.19766 0.8934 0.17023 3.0977-0.27468 3.8297-0.48126 0.79045-2.2959 1.5155-3.0694 2.102-1.5667 1.1887-2.9243 2.5301-4.1796 4.0472-2.6661 3.2216-4.1337 6.5866-5.3679 10.572-4.1029 13.245-4.4507 28.998 0.85344 42.004 0.70702 1.7343 2.8981 5.3518 4.1862 1.638 0.25451-0.73399-0.3345-3.194-0.33318-3.9346 0.0046275-2.7201 1.5061-20.729 8.0471-30.817 2.1291-3.2838 11.973-15.581 13.983-15.679 1.0653 1.6928 11.88 12.509 39.943 11.241 12.662-0.57192 22.399-6.2608 24.737-8.7268 1.0285 5.5328 12.992 13.816 14.815 17.224 5.2663 9.8455 6.4344 30.304 8.4447 30.265s3.4534-5.2376 3.8669-6.2303c3.0717-7.3754 3.5946-16.632 3.267-24.559-0.42738-10.202-4.6384-21.226-12.235-28.22z"/>
</defs>
<mask id="m" fill="white">
<use xlink:href="#h"/>
</mask>
<g mask="url(#m)">
<g transform="translate(-1)">
<mask id="n" fill="white">
<use xlink:href="#d"/>
</mask>
<use fill="#28354B" fill-rule="evenodd" xlink:href="#d"/>
<g fill="#2C1B18" mask="url(#n)">
<g transform="translate(0)">
<rect width="264" height="280"/>
</g>
</g>
<g transform="translate(62 85)" fill="none">
<defs>
<filter id="o" x="0" y="0" width="1" height="1.0488">
<feOffset dx="0" dy="2" in="SourceAlpha" result="shadowOffsetOuter1"/>
<feColorMatrix in="shadowOffsetOuter1" result="shadowMatrixOuter1" values="0 0 0 0 0   0 0 0 0 0   0 0 0 0 0  0 0 0 0.2 0"/>
<feMerge>
<feMergeNode in="shadowMatrixOuter1"/>
<feMergeNode in="SourceGraphic"/>
</feMerge>
</filter>
</defs>
<g transform="translate(6 7)" fill="#252C2F" fill-rule="nonzero" filter="url(#o)">
<path d="m34 41h-2.7579c-13.927 0-22.242-7.6641-22.242-20.5 0-10.373 1.817-20.5 23.53-20.5h2.9401c21.713 0 23.53 10.127 23.53 20.5 0 12.069-10.279 20.5-25 20.5zm-1.6146-35c-19.385 0-19.385 6.841-19.385 15.502 0 7.0704 3.1163 15.498 17.971 15.498h3.0291c12.365 0 21-6.373 21-15.498 0-8.6605 0-15.502-19.385-15.502h-3.2293z"/>
<path d="m96 41h-2.7579c-13.927 0-22.242-7.6641-22.242-20.5 0-10.373 1.817-20.5 23.53-20.5h2.9401c21.713 0 23.53 10.127 23.53 20.5 0 12.069-10.279 20.5-25 20.5zm-1.6146-35c-19.385 0-19.385 6.841-19.385 15.502 0 7.0704 3.1195 15.498 17.971 15.498h3.0291c12.365 0 21-6.373 21-15.498 0-8.6605 0-15.502-19.385-15.502h-3.2293z"/>
<path d="m2.9545 5.7716c0.69136-0.67527 8.255-5.7716 29.545-5.7716 17.851 0 21.63 1.8527 27.35 4.6519l0.4187 0.20663c0.39768 0.14051 2.4313 0.83132 4.8101 0.90729 2.1672-0.09301 4.021-0.68039 4.5626-0.8686 6.5287-3.1751 12.919-4.8972 27.858-4.8972 21.29 0 28.854 5.0963 29.545 5.7716 1.6339 0 2.9545 1.2899 2.9545 2.8858v2.8858c0 1.5958-1.3207 2.8858-2.9545 2.8858 0 0-6.9015 0-6.9015 2.8858s-1.9622-4.1757-1.9622-5.7716v-2.8107c-3.6032-1.379-10.053-3.9462-20.682-3.9462-11.842 0-17.739 2.0999-22.798 4.1849l0.05657 0.1364-0.0024969 1.9862-2.2172 5.3499-2.7387-1.0828c-0.24459-0.096706-0.77235-0.27044-1.5041-0.45093-2.0401-0.50316-4.1374-0.65634-5.9923-0.2756-0.68049 0.13968-1.3119 0.3493-1.8913 0.63242l-2.6423 1.2911-2.6438-5.1617 0.11742-2.2944 0.080729-0.19492c-4.3628-2.033-8.3856-4.1207-22.825-4.1207-10.628 0-17.078 2.5663-20.682 3.9453v2.8117c0 1.5958-2.9545 8.6573-2.9545 5.7716s-5.9091-2.8858-5.9091-2.8858c-1.6309 0-2.9545-1.2899-2.9545-2.8858v-2.8858c0-1.5958 1.3236-2.8858 2.9545-2.8858z"/>
</g>
</g>
</g>
</g>
</g>
</g>
</g>
</g>
</g>
</svg>
